<svg xmlns="http://www.w3.org/2000/svg" viewBox="0 0 800 800" role="img">
  <defs>
    <linearGradient id="h-body" x1="0" y1="0" x2="0" y2="1">
      <stop offset="0" stop-color="#ffffff"/><stop offset="1" stop-color="#e2e8f0"/>
    </linearGradient>
    <linearGradient id="h-dark" x1="0" y1="0" x2="0" y2="1">
      <stop offset="0" stop-color="#334155"/><stop offset="1" stop-color="#0f172a"/>
    </linearGradient>
    <linearGradient id="h-glass" x1="0" y1="0" x2="1" y2="1">
      <stop offset="0" stop-color="#ffffff" stop-opacity=".9"/><stop offset="1" stop-color="#ffffff" stop-opacity="0"/>
    </linearGradient>
    <radialGradient id="h-shadow" cx=".5" cy=".5" r=".5">
      <stop offset="0" stop-color="#000" stop-opacity=".35"/><stop offset="1" stop-color="#000" stop-opacity="0"/>
    </radialGradient>
  </defs>
  <ellipse cx="400" cy="670" rx="150" ry="22" fill="url(#h-shadow)"/>
  <rect x="335" y="120" width="130" height="80" rx="14" fill="url(#h-dark)"/>
  <rect x="355" y="190" width="90" height="40" rx="8" fill="#334155"/>
  <path d="M290 260 q0 -40 40 -40 h140 q40 0 40 40 v360 q0 40 -40 40 h-140 q-40 0 -40 -40z" fill="url(#h-body)" stroke="#cbd5e1"/>
  <path d="M300 420 h200 v190 q0 34 -34 34 h-132 q-34 0 -34 -34z" fill="#1f2937" opacity=".92"/>
  <rect x="320" y="300" width="160" height="90" rx="10" fill="#1f2937"/>
  <text x="400" y="358" text-anchor="middle" font-family="Arial, sans-serif" font-size="40" font-weight="700" fill="#fff">BK</text>
  <path d="M305 250 q0 -20 22 -20 h20 v390 h-20 q-22 0 -22 -22z" fill="#fff" opacity=".55"/></svg>
