<svg xmlns="http://www.w3.org/2000/svg" viewBox="0 0 800 800" role="img">
  <defs>
    <linearGradient id="f-body" x1="0" y1="0" x2="0" y2="1">
      <stop offset="0" stop-color="#475569"/><stop offset="1" stop-color="#0f172a"/>
    </linearGradient>
    <linearGradient id="f-dark" x1="0" y1="0" x2="0" y2="1">
      <stop offset="0" stop-color="#334155"/><stop offset="1" stop-color="#0f172a"/>
    </linearGradient>
    <linearGradient id="f-glass" x1="0" y1="0" x2="1" y2="1">
      <stop offset="0" stop-color="#ffffff" stop-opacity=".9"/><stop offset="1" stop-color="#ffffff" stop-opacity="0"/>
    </linearGradient>
    <radialGradient id="f-shadow" cx=".5" cy=".5" r=".5">
      <stop offset="0" stop-color="#000" stop-opacity=".35"/><stop offset="1" stop-color="#000" stop-opacity="0"/>
    </radialGradient>
  </defs>
  <ellipse cx="400" cy="640" rx="300" ry="34" fill="url(#f-shadow)"/>
  <rect x="160" y="220" width="480" height="390" rx="34" fill="url(#f-body)"/>
  <rect x="160" y="220" width="480" height="110" rx="34" fill="url(#f-dark)"/>
  <rect x="215" y="250" width="300" height="30" rx="10" fill="#0b1220"/>
  <path d="M215 250 h300 v12 h-300z" fill="#fff" opacity=".85"/>
  <rect x="540" y="245" width="70" height="44" rx="8" fill="#0b1220" stroke="#38bdf8" stroke-opacity=".7"/>
  <circle cx="575" cy="267" r="6" fill="#38bdf8"/>
  <rect x="200" y="380" width="400" height="16" rx="8" fill="#64748b" opacity=".45"/>
  <rect x="200" y="470" width="400" height="110" rx="16" fill="#e2e8f0" stroke="#64748b" stroke-opacity=".35"/>
  <rect x="350" y="515" width="100" height="14" rx="7" fill="#64748b" opacity=".5"/>
  <rect x="160" y="330" width="480" height="40" fill="url(#f-glass)" opacity=".35"/></svg>
