<svg xmlns="http://www.w3.org/2000/svg" viewBox="0 0 800 800" role="img">
  <defs>
    <linearGradient id="y-body" x1="0" y1="0" x2="0" y2="1">
      <stop offset="0" stop-color="#64748b"/><stop offset="1" stop-color="#0f172a"/>
    </linearGradient>
    <linearGradient id="y-dark" x1="0" y1="0" x2="0" y2="1">
      <stop offset="0" stop-color="#334155"/><stop offset="1" stop-color="#0f172a"/>
    </linearGradient>
    <linearGradient id="y-glass" x1="0" y1="0" x2="1" y2="1">
      <stop offset="0" stop-color="#ffffff" stop-opacity=".9"/><stop offset="1" stop-color="#ffffff" stop-opacity="0"/>
    </linearGradient>
    <radialGradient id="y-shadow" cx=".5" cy=".5" r=".5">
      <stop offset="0" stop-color="#000" stop-opacity=".35"/><stop offset="1" stop-color="#000" stop-opacity="0"/>
    </radialGradient>
  </defs>
  <ellipse cx="400" cy="640" rx="260" ry="22" fill="url(#y-shadow)"/>
  <path d="M220 300 C 220 560, 600 560, 580 330 C 570 200, 300 200, 330 420 C 350 560, 560 520, 560 600" stroke="#334155" stroke-width="22" fill="none" stroke-linecap="round"/>
  <rect x="170" y="220" width="100" height="90" rx="12" fill="url(#y-body)"/>
  <rect x="190" y="160" width="60" height="70" rx="6" fill="#cbd5e1"/>
  <rect x="200" y="175" width="40" height="14" rx="3" fill="#475569"/>
  <rect x="510" y="590" width="100" height="90" rx="12" fill="url(#y-body)"/>
  <path d="M525 670 h70 v50 l-12 14 h-46 l-12 -14z" fill="#cbd5e1"/></svg>
